<?xml version="1.0" encoding="UTF-8"?>
<svg id="Layer_2" data-name="Layer 2" xmlns="http://www.w3.org/2000/svg" viewBox="0 0 626 738">
  <defs>
    <style>
      .cls-1 {
        fill: #282828;
      }
    </style>
  </defs>
  <g id="_Ñëîé_1" data-name="Ñëîé 1">
    <g>
      <path class="cls-1" d="M589.46,130h-281.04c-2.81-1.05-6.09-.44-8.33,1.84l-96.79,98.1c-.68.69-1.2,1.48-1.57,2.31-.46.95-.73,2.03-.73,3.2v465.1c0,20.84,16.14,37.46,36.7,37.46h351.76c20.56,0,36.54-16.62,36.54-37.46V166.66c0-20.84-15.98-36.66-36.54-36.66ZM298,156.3v49.28c0,12.14-9.51,22.42-20.98,22.42h-49.76l70.74-71.7ZM611,700.54c0,12.04-9.78,21.46-21.54,21.46H237.7c-11.76,0-20.7-9.42-20.7-21.46V243h60.02c20.13,0,36.98-16.62,36.98-37.42v-60.58h275.46c11.76,0,21.54,9.62,21.54,21.66v533.88Z"/>
      <path class="cls-1" d="M.09,199.49c.02.15.06.3.09.45.02.09.03.19.06.28l52.42,204.58c.91,3.55,4.1,5.9,7.6,5.9.64,0,1.3-.08,1.95-.25,4.2-1.08,6.73-5.35,5.65-9.55L17.39,203.93l58.4-14.96c9.63-2.47,17.61-8.66,22.48-17.45,4.73-8.54,5.99-18.54,3.52-28.14l-14.99-58.5L354.11,16.39c11.39-2.91,22.65,3.93,25.64,15.58l12.66,49.52c1.07,4.2,5.35,6.73,9.55,5.66,4.2-1.07,6.73-5.35,5.66-9.55l-12.66-49.52c-5.17-20.19-24.82-32-44.74-26.9L75.31,71.62s-.01,0-.02,0c-.17.05-.35.1-.52.16-.07.02-.14.04-.21.07-.23.08-.45.18-.67.28,0,0-.02,0-.03.01-1.04.5-1.98,1.24-2.73,2.19-.07.08-.14.16-.2.25-.05.07-.1.15-.15.22-.09.14-.19.27-.28.42,0,0,0,.02-.01.03,0,0,0,.01-.01.02L1.09,194.27s0,0,0,0l-.02.04c-.03.06-.06.12-.09.18-.09.16-.18.32-.25.49-.05.1-.09.21-.13.31-.05.13-.11.26-.16.4-.04.12-.07.24-.11.36-.04.12-.08.25-.11.38-.03.12-.05.25-.07.37-.02.13-.05.26-.07.39-.02.12-.03.24-.04.36-.01.13-.03.27-.03.4,0,.12,0,.24,0,.36,0,.14,0,.27,0,.41,0,.13.02.25.04.38.01.13.02.26.04.38ZM84.54,163.91c-2.75,4.97-7.24,8.47-12.65,9.85l-47.82,12.25,50.33-86.31,12.19,47.57c1.46,5.71.73,11.62-2.05,16.64Z"/>
      <path class="cls-1" d="M181.94,661.01l-113.44-23.14c-5.56-1.13-10.29-4.35-13.32-9.07-3.05-4.73-4.09-10.47-2.93-16.16l91.4-448.02,59.07,12.05c19.73,4.02,39.15-9.28,43.31-29.65l12.07-59.17,136.61,27.87c4.24.86,8.39-1.87,9.26-6.12.87-4.25-1.87-8.39-6.12-9.26l-144.3-29.44s-.02,0-.02,0c-.19-.04-.39-.07-.59-.09-.23-.03-.46-.05-.7-.05-.08,0-.16-.01-.24-.01-.18,0-.36.01-.53.02-.08,0-.16,0-.23.01-.16.02-.32.04-.48.07-.09.02-.19.02-.28.04-.14.03-.28.07-.42.1-.11.03-.22.05-.33.08-.13.04-.26.09-.39.14-.11.04-.22.07-.33.12-.22.09-.44.2-.66.31-.04.02-.08.05-.12.07-.2.11-.39.22-.58.35,0,0-.01,0-.02.01l-114.44,76.77c-.09.06-.18.13-.27.2-.11.08-.23.16-.34.25-.12.1-.23.21-.35.31-.07.07-.15.13-.22.21-.13.13-.24.26-.36.39-.05.06-.11.11-.15.17-.12.14-.23.29-.33.44-.04.06-.08.11-.12.17-.1.15-.19.31-.28.46-.04.07-.08.13-.12.2-.08.15-.15.3-.22.45-.04.08-.08.16-.11.24-.06.14-.11.29-.16.43-.03.1-.07.19-.1.29-.04.15-.08.29-.11.44-.02.09-.05.18-.07.27l-92.97,455.71c-1.98,9.72-.17,19.59,5.12,27.79,5.34,8.3,13.65,13.96,23.38,15.94l113.44,23.14c.53.11,1.06.16,1.58.16,3.65,0,6.92-2.56,7.68-6.28.87-4.25-1.87-8.39-6.12-9.26ZM230.64,143.88c-2.43,11.89-13.55,19.7-24.79,17.41l-48.37-9.87,82.97-55.66-9.82,48.12Z"/>
      <path class="cls-1" d="M346.22,262h200.12c4.33,0,7.85-3.67,7.85-8s-3.51-8-7.85-8h-200.12c-4.33,0-7.85,3.67-7.85,8s3.51,8,7.85,8Z"/>
      <path class="cls-1" d="M286.05,339h210.58c4.33,0,7.85-3.67,7.85-8s-3.51-8-7.85-8h-210.58c-4.33,0-7.85,3.67-7.85,8s3.51,8,7.85,8Z"/>
      <path class="cls-1" d="M551.57,396h-265.52c-4.33,0-7.85,3.17-7.85,7.5s3.51,7.5,7.85,7.5h265.52c4.33,0,7.85-3.17,7.85-7.5s-3.51-7.5-7.85-7.5Z"/>
      <path class="cls-1" d="M286.05,484h159.57c4.33,0,7.85-3.17,7.85-7.5s-3.51-7.5-7.85-7.5h-159.57c-4.33,0-7.85,3.17-7.85,7.5s3.51,7.5,7.85,7.5Z"/>
      <path class="cls-1" d="M551.57,540h-265.52c-4.33,0-7.85,3.67-7.85,8s3.51,8,7.85,8h265.52c4.33,0,7.85-3.67,7.85-8s-3.51-8-7.85-8Z"/>
      <path class="cls-1" d="M378.92,613h-92.86c-4.33,0-7.85,3.67-7.85,8s3.51,8,7.85,8h92.86c4.33,0,7.85-3.67,7.85-8s-3.51-8-7.85-8Z"/>
    </g>
  </g>
</svg>